<svg xmlns="http://www.w3.org/2000/svg" width="32" height="32" viewBox="0 0 32 32" shape-rendering="crispEdges"><rect x="9" y="6" width="1" height="1" fill="#232021"/><rect x="10" y="6" width="1" height="1" fill="#221f20"/><rect x="11" y="6" width="1" height="1" fill="#222021"/><rect x="12" y="6" width="1" height="1" fill="#222220"/><rect x="13" y="6" width="1" height="1" fill="#222022"/><rect x="14" y="6" width="1" height="1" fill="#22211f"/><rect x="15" y="6" width="1" height="1" fill="#201f20"/><rect x="16" y="6" width="1" height="1" fill="#221e20"/><rect x="17" y="6" width="1" height="1" fill="#21201e"/><rect x="18" y="6" width="1" height="1" fill="#231f20"/><rect x="19" y="6" width="1" height="1" fill="#1f1f1f"/><rect x="20" y="6" width="1" height="1" fill="#1e1f1d"/><rect x="21" y="6" width="1" height="1" fill="#1e1e1d"/><rect x="22" y="6" width="1" height="1" fill="#1e1e1e"/><rect x="9" y="7" width="1" height="1" fill="#211f20"/><rect x="10" y="7" width="1" height="1" fill="#211e21"/><rect x="11" y="7" width="1" height="1" fill="#22201f"/><rect x="12" y="7" width="1" height="1" fill="#211f20"/><rect x="13" y="7" width="1" height="1" fill="#221f21"/><rect x="14" y="7" width="1" height="1" fill="#211f1f"/><rect x="15" y="7" width="1" height="1" fill="#201f1f"/><rect x="16" y="7" width="1" height="1" fill="#211f1f"/><rect x="17" y="7" width="1" height="1" fill="#202020"/><rect x="18" y="7" width="1" height="1" fill="#1f1e1e"/><rect x="19" y="7" width="1" height="1" fill="#1f1d1e"/><rect x="20" y="7" width="1" height="1" fill="#1d1c1d"/><rect x="21" y="7" width="1" height="1" fill="#1e1d1d"/><rect x="22" y="7" width="1" height="1" fill="#1c1d1d"/><rect x="7" y="8" width="1" height="1" fill="#221f20"/><rect x="8" y="8" width="1" height="1" fill="#1f1d1f"/><rect x="9" y="8" width="1" height="1" fill="#ef2b5a"/><rect x="10" y="8" width="1" height="1" fill="#f22c5b"/><rect x="11" y="8" width="1" height="1" fill="#f77350"/><rect x="12" y="8" width="1" height="1" fill="#f6734f"/><rect x="13" y="8" width="1" height="1" fill="#fda854"/><rect x="14" y="8" width="1" height="1" fill="#fdac52"/><rect x="15" y="8" width="1" height="1" fill="#fff155"/><rect x="16" y="8" width="1" height="1" fill="#fff353"/><rect x="17" y="8" width="1" height="1" fill="#e8f558"/><rect x="18" y="8" width="1" height="1" fill="#e8f659"/><rect x="19" y="8" width="1" height="1" fill="#89d662"/><rect x="20" y="8" width="1" height="1" fill="#87d764"/><rect x="21" y="8" width="1" height="1" fill="#4dd08b"/><rect x="22" y="8" width="1" height="1" fill="#4ed38c"/><rect x="23" y="8" width="1" height="1" fill="#1d1d1c"/><rect x="24" y="8" width="1" height="1" fill="#1d1d1c"/><rect x="7" y="9" width="1" height="1" fill="#221e1f"/><rect x="8" y="9" width="1" height="1" fill="#201e1f"/><rect x="9" y="9" width="1" height="1" fill="#f12c5b"/><rect x="10" y="9" width="1" height="1" fill="#f02a5a"/><rect x="11" y="9" width="1" height="1" fill="#f8734f"/><rect x="12" y="9" width="1" height="1" fill="#f9784e"/><rect x="13" y="9" width="1" height="1" fill="#ffaa54"/><rect x="14" y="9" width="1" height="1" fill="#feae52"/><rect x="15" y="9" width="1" height="1" fill="#fef253"/><rect x="16" y="9" width="1" height="1" fill="#fef153"/><rect x="17" y="9" width="1" height="1" fill="#e4f658"/><rect x="18" y="9" width="1" height="1" fill="#e6f557"/><rect x="19" y="9" width="1" height="1" fill="#86d863"/><rect x="20" y="9" width="1" height="1" fill="#87d765"/><rect x="21" y="9" width="1" height="1" fill="#4ad18c"/><rect x="22" y="9" width="1" height="1" fill="#4dd08d"/><rect x="23" y="9" width="1" height="1" fill="#1c1c1d"/><rect x="24" y="9" width="1" height="1" fill="#1b1c1c"/><rect x="5" y="10" width="1" height="1" fill="#212122"/><rect x="6" y="10" width="1" height="1" fill="#1e1d1f"/><rect x="7" y="10" width="1" height="1" fill="#ae2ea5"/><rect x="8" y="10" width="1" height="1" fill="#b12c9e"/><rect x="9" y="10" width="1" height="1" fill="#f6634f"/><rect x="10" y="10" width="1" height="1" fill="#f7624e"/><rect x="11" y="10" width="1" height="1" fill="#feaa53"/><rect x="12" y="10" width="1" height="1" fill="#fdab53"/><rect x="13" y="10" width="1" height="1" fill="#fffa9c"/><rect x="14" y="10" width="1" height="1" fill="#fdfa9b"/><rect x="15" y="10" width="1" height="1" fill="#fff155"/><rect x="16" y="10" width="1" height="1" fill="#fdf553"/><rect x="17" y="10" width="1" height="1" fill="#e6f559"/><rect x="18" y="10" width="1" height="1" fill="#e5f658"/><rect x="19" y="10" width="1" height="1" fill="#bde457"/><rect x="20" y="10" width="1" height="1" fill="#b8e058"/><rect x="21" y="10" width="1" height="1" fill="#60d17a"/><rect x="22" y="10" width="1" height="1" fill="#61d07a"/><rect x="23" y="10" width="1" height="1" fill="#53a0ed"/><rect x="24" y="10" width="1" height="1" fill="#51a1ed"/><rect x="25" y="10" width="1" height="1" fill="#1d1d1d"/><rect x="26" y="10" width="1" height="1" fill="#1f1d1f"/><rect x="5" y="11" width="1" height="1" fill="#222021"/><rect x="6" y="11" width="1" height="1" fill="#201e1f"/><rect x="7" y="11" width="1" height="1" fill="#af2ea2"/><rect x="8" y="11" width="1" height="1" fill="#af2c9e"/><rect x="9" y="11" width="1" height="1" fill="#f65f4e"/><rect x="10" y="11" width="1" height="1" fill="#f6634f"/><rect x="11" y="11" width="1" height="1" fill="#fdab55"/><rect x="12" y="11" width="1" height="1" fill="#fbac54"/><rect x="13" y="11" width="1" height="1" fill="#fffa9f"/><rect x="14" y="11" width="1" height="1" fill="#fefa9d"/><rect x="15" y="11" width="1" height="1" fill="#fdf355"/><rect x="16" y="11" width="1" height="1" fill="#fef256"/><rect x="17" y="11" width="1" height="1" fill="#e6f357"/><rect x="18" y="11" width="1" height="1" fill="#e3f559"/><rect x="19" y="11" width="1" height="1" fill="#b8e457"/><rect x="20" y="11" width="1" height="1" fill="#b5e259"/><rect x="21" y="11" width="1" height="1" fill="#5bcf7d"/><rect x="22" y="11" width="1" height="1" fill="#5bd07d"/><rect x="23" y="11" width="1" height="1" fill="#509feb"/><rect x="24" y="11" width="1" height="1" fill="#519fed"/><rect x="25" y="11" width="1" height="1" fill="#1c1d1e"/><rect x="26" y="11" width="1" height="1" fill="#1e1e20"/><rect x="5" y="12" width="1" height="1" fill="#211f22"/><rect x="6" y="12" width="1" height="1" fill="#211e1e"/><rect x="7" y="12" width="1" height="1" fill="#ef2e5c"/><rect x="8" y="12" width="1" height="1" fill="#f12f5b"/><rect x="9" y="12" width="1" height="1" fill="#fca850"/><rect x="10" y="12" width="1" height="1" fill="#feac51"/><rect x="11" y="12" width="1" height="1" fill="#fefa95"/><rect x="12" y="12" width="1" height="1" fill="#fefa99"/><rect x="13" y="12" width="1" height="1" fill="#fef057"/><rect x="14" y="12" width="1" height="1" fill="#fef158"/><rect x="15" y="12" width="1" height="1" fill="#caea55"/><rect x="16" y="12" width="1" height="1" fill="#c9eb56"/><rect x="17" y="12" width="1" height="1" fill="#98db5f"/><rect x="18" y="12" width="1" height="1" fill="#99de5e"/><rect x="19" y="12" width="1" height="1" fill="#53cd85"/><rect x="20" y="12" width="1" height="1" fill="#51d085"/><rect x="21" y="12" width="1" height="1" fill="#4d98e5"/><rect x="22" y="12" width="1" height="1" fill="#4e9be8"/><rect x="23" y="12" width="1" height="1" fill="#4e52d9"/><rect x="24" y="12" width="1" height="1" fill="#4f50db"/><rect x="25" y="12" width="1" height="1" fill="#1e1c1f"/><rect x="26" y="12" width="1" height="1" fill="#1d1d1d"/><rect x="5" y="13" width="1" height="1" fill="#202020"/><rect x="6" y="13" width="1" height="1" fill="#201b20"/><rect x="7" y="13" width="1" height="1" fill="#f02e5b"/><rect x="8" y="13" width="1" height="1" fill="#f13059"/><rect x="9" y="13" width="1" height="1" fill="#fda750"/><rect x="10" y="13" width="1" height="1" fill="#fdab51"/><rect x="11" y="13" width="1" height="1" fill="#fefb97"/><rect x="12" y="13" width="1" height="1" fill="#fefc96"/><rect x="13" y="13" width="1" height="1" fill="#fdf157"/><rect x="14" y="13" width="1" height="1" fill="#fdf358"/><rect x="15" y="13" width="1" height="1" fill="#c7ea57"/><rect x="16" y="13" width="1" height="1" fill="#c4e955"/><rect x="17" y="13" width="1" height="1" fill="#96dc5e"/><rect x="18" y="13" width="1" height="1" fill="#98dc61"/><rect x="19" y="13" width="1" height="1" fill="#50cf87"/><rect x="20" y="13" width="1" height="1" fill="#50ce89"/><rect x="21" y="13" width="1" height="1" fill="#4c9ae7"/><rect x="22" y="13" width="1" height="1" fill="#4e9de9"/><rect x="23" y="13" width="1" height="1" fill="#4f51da"/><rect x="24" y="13" width="1" height="1" fill="#4f50da"/><rect x="25" y="13" width="1" height="1" fill="#1c1c1e"/><rect x="26" y="13" width="1" height="1" fill="#1d1e1f"/><rect x="7" y="14" width="1" height="1" fill="#222022"/><rect x="8" y="14" width="1" height="1" fill="#221d20"/><rect x="9" y="14" width="1" height="1" fill="#fda951"/><rect x="10" y="14" width="1" height="1" fill="#fbae50"/><rect x="11" y="14" width="1" height="1" fill="#fef969"/><rect x="12" y="14" width="1" height="1" fill="#fcfa69"/><rect x="13" y="14" width="1" height="1" fill="#e1f35c"/><rect x="14" y="14" width="1" height="1" fill="#dff45a"/><rect x="15" y="14" width="1" height="1" fill="#7fd464"/><rect x="16" y="14" width="1" height="1" fill="#7bd468"/><rect x="17" y="14" width="1" height="1" fill="#50d187"/><rect x="18" y="14" width="1" height="1" fill="#4fd08a"/><rect x="19" y="14" width="1" height="1" fill="#5099e6"/><rect x="20" y="14" width="1" height="1" fill="#519aeb"/><rect x="21" y="14" width="1" height="1" fill="#4d56d8"/><rect x="22" y="14" width="1" height="1" fill="#4e57db"/><rect x="23" y="14" width="1" height="1" fill="#1d1d1e"/><rect x="24" y="14" width="1" height="1" fill="#1e1d1e"/><rect x="7" y="15" width="1" height="1" fill="#211e22"/><rect x="8" y="15" width="1" height="1" fill="#211d1f"/><rect x="9" y="15" width="1" height="1" fill="#ffa951"/><rect x="10" y="15" width="1" height="1" fill="#fdac52"/><rect x="11" y="15" width="1" height="1" fill="#fdf865"/><rect x="12" y="15" width="1" height="1" fill="#fcfb69"/><rect x="13" y="15" width="1" height="1" fill="#e0f35b"/><rect x="14" y="15" width="1" height="1" fill="#e1f25b"/><rect x="15" y="15" width="1" height="1" fill="#79d565"/><rect x="16" y="15" width="1" height="1" fill="#78d367"/><rect x="17" y="15" width="1" height="1" fill="#4dd087"/><rect x="18" y="15" width="1" height="1" fill="#4dd18b"/><rect x="19" y="15" width="1" height="1" fill="#4f99e9"/><rect x="20" y="15" width="1" height="1" fill="#509aeb"/><rect x="21" y="15" width="1" height="1" fill="#4e55d8"/><rect x="22" y="15" width="1" height="1" fill="#4d56d9"/><rect x="23" y="15" width="1" height="1" fill="#1d1c1e"/><rect x="24" y="15" width="1" height="1" fill="#1e1e1e"/><rect x="9" y="16" width="1" height="1" fill="#212020"/><rect x="10" y="16" width="1" height="1" fill="#222021"/><rect x="11" y="16" width="1" height="1" fill="#d0e958"/><rect x="12" y="16" width="1" height="1" fill="#ceea58"/><rect x="13" y="16" width="1" height="1" fill="#dff259"/><rect x="14" y="16" width="1" height="1" fill="#dff35a"/><rect x="15" y="16" width="1" height="1" fill="#7ad566"/><rect x="16" y="16" width="1" height="1" fill="#78d46a"/><rect x="17" y="16" width="1" height="1" fill="#5496ed"/><rect x="18" y="16" width="1" height="1" fill="#5695f2"/><rect x="19" y="16" width="1" height="1" fill="#5e43d4"/><rect x="20" y="16" width="1" height="1" fill="#5f43d4"/><rect x="21" y="16" width="1" height="1" fill="#202020"/><rect x="22" y="16" width="1" height="1" fill="#1f1d1e"/><rect x="9" y="17" width="1" height="1" fill="#222121"/><rect x="10" y="17" width="1" height="1" fill="#1f1c1f"/><rect x="11" y="17" width="1" height="1" fill="#d0e956"/><rect x="12" y="17" width="1" height="1" fill="#cce956"/><rect x="13" y="17" width="1" height="1" fill="#e0f35a"/><rect x="14" y="17" width="1" height="1" fill="#dff45a"/><rect x="15" y="17" width="1" height="1" fill="#7ad667"/><rect x="16" y="17" width="1" height="1" fill="#76d369"/><rect x="17" y="17" width="1" height="1" fill="#5592ed"/><rect x="18" y="17" width="1" height="1" fill="#5594f1"/><rect x="19" y="17" width="1" height="1" fill="#5e40d2"/><rect x="20" y="17" width="1" height="1" fill="#6040d4"/><rect x="21" y="17" width="1" height="1" fill="#1f1f1e"/><rect x="22" y="17" width="1" height="1" fill="#1f1f1f"/><rect x="11" y="18" width="1" height="1" fill="#21211f"/><rect x="12" y="18" width="1" height="1" fill="#212022"/><rect x="13" y="18" width="1" height="1" fill="#7ed667"/><rect x="14" y="18" width="1" height="1" fill="#7bd466"/><rect x="15" y="18" width="1" height="1" fill="#509ce8"/><rect x="16" y="18" width="1" height="1" fill="#529dec"/><rect x="17" y="18" width="1" height="1" fill="#673bcf"/><rect x="18" y="18" width="1" height="1" fill="#683bd1"/><rect x="19" y="18" width="1" height="1" fill="#201e20"/><rect x="20" y="18" width="1" height="1" fill="#201f1f"/><rect x="11" y="19" width="1" height="1" fill="#232123"/><rect x="12" y="19" width="1" height="1" fill="#212021"/><rect x="13" y="19" width="1" height="1" fill="#7cd668"/><rect x="14" y="19" width="1" height="1" fill="#7ad469"/><rect x="15" y="19" width="1" height="1" fill="#529de9"/><rect x="16" y="19" width="1" height="1" fill="#549dee"/><rect x="17" y="19" width="1" height="1" fill="#6939ce"/><rect x="18" y="19" width="1" height="1" fill="#683dd0"/><rect x="19" y="19" width="1" height="1" fill="#201f20"/><rect x="20" y="19" width="1" height="1" fill="#201f1f"/><rect x="13" y="20" width="1" height="1" fill="#211f21"/><rect x="14" y="20" width="1" height="1" fill="#211e21"/><rect x="15" y="20" width="1" height="1" fill="#6c39cd"/><rect x="16" y="20" width="1" height="1" fill="#6b37cf"/><rect x="17" y="20" width="1" height="1" fill="#211d1f"/><rect x="18" y="20" width="1" height="1" fill="#201f1f"/><rect x="13" y="21" width="1" height="1" fill="#222021"/><rect x="14" y="21" width="1" height="1" fill="#231d21"/><rect x="15" y="21" width="1" height="1" fill="#6c35cd"/><rect x="16" y="21" width="1" height="1" fill="#6c38cf"/><rect x="17" y="21" width="1" height="1" fill="#1f1e1f"/><rect x="18" y="21" width="1" height="1" fill="#201f21"/><rect x="15" y="22" width="1" height="1" fill="#201c20"/><rect x="16" y="22" width="1" height="1" fill="#211f1f"/><rect x="15" y="23" width="1" height="1" fill="#21201f"/><rect x="16" y="23" width="1" height="1" fill="#211f1f"/></svg>